<?xml version="1.0" standalone="no"?>
<!DOCTYPE svg PUBLIC "-//W3C//DTD SVG 20010904//EN"
 "http://www.w3.org/TR/2001/REC-SVG-20010904/DTD/svg10.dtd">
<svg version="1.0" xmlns="http://www.w3.org/2000/svg"
 width="1024.000000pt" height="1024.000000pt" viewBox="0 0 1024.000000 1024.000000"
 preserveAspectRatio="xMidYMid meet">

<g transform="translate(0.000000,1024.000000) scale(0.100000,-0.100000)"
fill="#000000" stroke="none">
<path d="M3355 9150 c-109 -43 -242 -179 -271 -279 -13 -44 -14 -66 -6 -124 6
-39 10 -72 9 -73 -1 0 -59 -19 -129 -42 -69 -23 -165 -59 -213 -81 -103 -48
-268 -155 -333 -215 -26 -25 -95 -71 -152 -104 -327 -184 -582 -367 -710 -509
-59 -66 -228 -300 -255 -353 -16 -32 -19 -33 -29 -16 -49 83 -238 288 -252
273 -8 -8 40 -66 234 -280 25 -28 31 -42 23 -50 -8 -8 -24 1 -58 31 -114 99
-378 260 -472 287 -45 14 -11 -14 77 -61 48 -26 116 -65 152 -86 68 -42 221
-160 215 -166 -1 -2 -27 4 -57 13 -85 27 -326 32 -433 10 -47 -10 -85 -22 -85
-27 0 -5 15 -6 32 -3 18 3 72 9 120 15 132 14 367 -15 454 -56 32 -15 35 -20
30 -47 -3 -17 -8 -33 -11 -35 -5 -5 -26 -2 -290 38 -185 29 -299 25 -370 -13
-59 -31 -51 -33 42 -11 50 12 92 15 163 10 137 -9 430 -60 441 -77 5 -8 8 -39
7 -69 l-3 -55 -65 -8 c-126 -16 -386 -58 -450 -74 -65 -16 -125 -41 -118 -49
2 -2 40 3 84 11 236 43 436 75 489 77 l60 3 0 -69 0 -69 -65 -20 c-279 -82
-465 -157 -540 -216 -49 -39 -11 -31 87 18 102 51 267 112 408 151 44 12 88
24 98 26 11 4 17 0 17 -10 0 -11 -56 -43 -168 -97 -161 -77 -232 -117 -232
-130 0 -11 130 45 268 115 71 36 132 66 136 66 3 0 6 -22 6 -50 0 -45 -3 -52
-36 -77 -103 -79 -227 -185 -289 -248 -82 -82 -161 -183 -151 -192 4 -4 75 61
159 145 141 140 312 292 330 292 19 0 2 -33 -45 -87 -126 -143 -217 -253 -209
-253 18 0 101 77 176 163 42 48 80 85 86 82 17 -11 9 -41 -22 -83 -33 -45 -32
-54 3 -22 28 26 34 25 42 -2 4 -16 -3 -31 -23 -53 -74 -78 -228 -329 -219
-357 2 -6 19 13 38 43 19 30 75 112 124 183 l91 130 8 -40 c26 -119 61 -245
81 -290 54 -118 141 -174 284 -182 l83 -5 83 -101 c45 -55 121 -153 168 -216
93 -126 170 -207 206 -216 13 -4 25 -5 27 -3 2 3 -6 37 -18 76 -11 40 -17 76
-13 80 18 18 120 -136 170 -255 66 -157 164 -575 221 -942 28 -177 50 -282 92
-425 53 -184 98 -389 83 -380 -4 3 -10 18 -14 35 -10 51 -29 25 -21 -29 7 -53
79 -423 100 -521 132 -604 214 -1053 221 -1210 8 -157 -1 -181 -86 -233 -61
-37 -104 -56 -275 -122 -200 -77 -305 -180 -305 -300 0 -45 24 -85 53 -85 12
0 147 24 200 36 21 5 28 3 27 -7 -10 -67 17 -79 181 -79 137 0 212 15 354 69
55 21 134 46 175 56 90 21 137 44 179 85 81 82 239 364 332 594 l44 108 35
-43 c107 -134 292 -299 334 -299 24 0 20 -11 -26 -63 -43 -47 -44 -48 -159
-72 -241 -51 -352 -102 -397 -183 l-24 -42 36 -15 c19 -8 42 -15 50 -15 12 0
10 -9 -9 -46 -14 -26 -25 -60 -25 -75 0 -59 90 -81 210 -51 l75 19 5 -36 5
-36 142 1 141 1 6 -28 c5 -28 7 -29 68 -29 81 0 194 27 355 86 163 59 253 104
309 156 l45 41 167 -2 c92 -1 168 -4 170 -6 2 -2 -6 -21 -17 -44 -24 -46 -27
-113 -7 -130 11 -9 25 -9 55 -1 23 6 86 15 141 20 80 6 111 14 161 39 34 17
63 31 64 31 1 0 2 -17 1 -37 l-1 -38 100 3 c124 5 162 13 278 59 l92 37 250 6
c138 3 251 5 253 5 1 -1 -3 -16 -9 -34 -6 -18 -8 -35 -5 -38 11 -11 155 -32
266 -38 81 -5 116 -3 154 9 52 16 66 14 66 -10 0 -8 7 -29 16 -46 l16 -31 66
7 c151 16 426 92 542 151 29 15 78 33 108 41 83 22 195 69 260 110 155 98 373
368 462 574 21 48 60 121 86 161 111 173 226 448 294 704 35 129 76 364 84
485 16 210 17 221 32 209 11 -9 15 -7 20 6 11 27 -4 347 -21 480 -45 339 -152
748 -282 1079 -45 116 -189 416 -250 521 -75 130 -226 353 -302 446 -38 48
-67 89 -65 92 18 18 -149 227 -307 386 -214 216 -420 369 -672 501 -245 128
-438 194 -837 285 -113 25 -215 53 -228 61 -13 9 -30 13 -38 10 -8 -3 -27 10
-46 32 -87 101 -298 300 -423 396 -136 105 -459 326 -478 326 -5 0 10 21 33
48 87 98 126 221 116 359 -22 268 -147 443 -373 519 -87 30 -191 36 -258 16
-54 -16 -142 -84 -199 -154 l-47 -56 -92 48 c-123 65 -269 120 -326 123 -25 1
-111 -2 -191 -6 l-145 -9 -3 69 c-2 52 -10 83 -33 130 -56 115 -147 163 -307
162 -71 0 -110 -5 -147 -19z m285 -150 c45 -22 77 -71 83 -127 3 -31 2 -53 -3
-53 -13 0 -50 79 -44 94 11 28 -75 59 -159 57 -52 -1 -171 -53 -236 -102 l-54
-41 20 33 c30 48 124 122 180 142 55 19 173 17 213 -3z m1413 -275 c80 -21
145 -56 191 -104 48 -49 44 -64 -5 -20 -66 60 -192 109 -279 109 -144 0 -313
-118 -396 -276 -39 -74 -43 -44 -6 39 68 149 233 266 377 267 34 0 87 -7 118
-15z m-835 -78 c40 -8 76 -17 80 -22 4 -4 -81 -4 -188 0 -137 4 -191 3 -180
-4 8 -6 31 -11 50 -12 33 -1 33 -2 -10 -9 -63 -11 -130 -30 -130 -37 0 -7 80
5 150 23 30 8 66 14 80 13 14 -1 -4 -7 -39 -15 -36 -8 -75 -21 -87 -28 -12 -8
-37 -19 -55 -24 l-34 -10 40 -2 c35 -2 37 -3 15 -10 -21 -7 -19 -8 16 -9 23
-1 55 -8 70 -16 l29 -15 -55 -1 -55 -1 40 -11 c22 -7 51 -18 64 -26 15 -8 39
-11 65 -8 39 5 40 5 16 -8 -14 -8 -33 -14 -42 -15 -10 0 -18 -4 -18 -9 0 -4
18 -7 40 -6 36 2 67 -9 37 -13 -51 -8 -75 -5 -99 11 -24 18 -40 19 -210 13
-353 -12 -399 -16 -450 -42 -42 -21 -69 -44 -53 -44 3 0 28 11 55 25 31 16 66
25 95 25 49 0 54 -5 28 -27 -17 -14 -17 -14 2 -7 11 4 58 9 105 10 84 3 85 3
23 -6 -58 -8 -164 -48 -241 -92 -19 -10 -41 -17 -49 -14 -14 6 -196 -119 -230
-157 -18 -20 -18 -20 34 -13 36 4 52 3 55 -6 3 -7 32 11 71 44 61 50 221 147
272 164 11 4 2 -8 -20 -27 -65 -54 -176 -163 -186 -181 -19 -36 19 -18 132 62
163 115 252 156 362 168 106 12 192 3 302 -32 104 -32 145 -40 145 -28 0 9
-108 61 -165 80 -22 7 2 9 95 8 69 -1 144 2 167 7 l42 7 28 -50 c15 -27 31
-50 35 -50 4 0 17 18 28 40 12 23 25 38 29 36 5 -3 23 -47 42 -98 18 -51 39
-99 47 -107 7 -8 12 -22 9 -31 -3 -13 0 -16 16 -12 17 4 19 2 14 -21 -4 -14
-10 -32 -13 -41 -4 -10 -1 -16 9 -16 8 0 20 -6 26 -14 7 -8 27 -17 46 -20 l34
-7 -1 -55 c-2 -68 12 -86 44 -57 33 29 50 32 83 18 17 -7 24 -14 18 -14 -7 -1
-13 -10 -13 -20 0 -11 -4 -23 -10 -26 -20 -13 -9 -24 27 -27 28 -2 41 -9 50
-27 8 -17 34 -34 85 -54 40 -15 84 -33 98 -38 24 -10 24 -10 6 10 -10 11 -49
32 -87 46 -69 27 -84 45 -52 63 24 14 115 -22 178 -70 28 -21 72 -62 98 -93
27 -31 53 -52 59 -49 6 4 8 3 5 -3 -3 -5 45 -51 108 -102 110 -89 134 -118
119 -142 -4 -8 -3 -9 4 -5 7 4 12 3 12 -2 0 -18 -13 -21 -34 -7 -11 8 -24 15
-29 15 -16 0 48 -47 98 -73 67 -33 100 -61 91 -76 -5 -8 -33 2 -94 33 -47 25
-88 44 -89 42 -2 -2 27 -27 64 -57 128 -100 267 -223 367 -327 103 -105 149
-141 161 -122 4 6 1 9 -7 8 -7 -2 -12 2 -11 8 1 6 -11 24 -27 39 -17 16 -30
34 -30 39 0 12 119 -114 120 -127 0 -4 -11 -12 -24 -18 -21 -10 -33 -5 -95 32
-107 66 -213 120 -220 113 -3 -4 -1 -9 5 -11 27 -9 118 -69 121 -79 5 -14 -46
-6 -67 11 -44 35 -39 22 16 -40 33 -39 76 -92 94 -120 18 -27 54 -79 80 -115
65 -89 105 -164 135 -247 26 -75 45 -208 29 -202 -11 4 -90 92 -162 178 -50
60 -73 68 -38 13 56 -90 152 -327 161 -403 3 -17 10 -47 16 -66 17 -52 3 -52
-22 0 -20 40 -25 45 -42 36 -28 -15 -49 8 -109 123 -74 139 -81 132 -44 -47
37 -177 50 -234 72 -327 25 -100 31 -178 15 -178 -15 0 -49 49 -56 80 -4 17
-10 32 -15 35 -15 9 21 -107 50 -161 22 -41 30 -73 35 -139 9 -103 -3 -126
-31 -63 -10 24 -40 81 -66 128 l-48 85 0 -50 c0 -27 7 -90 16 -140 8 -49 17
-155 21 -235 9 -209 -10 -350 -31 -233 -8 42 -45 157 -70 215 -9 21 -16 63
-16 95 0 32 -5 76 -12 98 l-12 40 -7 -45 c-8 -53 -35 -172 -48 -215 -10 -31
-18 -103 -51 -446 -13 -134 -27 -226 -40 -264 -13 -37 -24 -108 -30 -194 -14
-181 -17 -198 -83 -410 l-14 -44 -12 84 c-6 46 -14 144 -18 217 -3 72 -10 132
-14 132 -12 0 -26 -62 -39 -165 -15 -121 -44 -268 -91 -459 -21 -88 -39 -168
-39 -179 0 -11 -2 -18 -4 -16 -6 6 -36 227 -36 265 0 46 -51 58 -64 16 -2 -10
-3 28 0 83 3 55 6 145 9 200 2 55 11 141 19 190 18 103 22 410 6 420 -5 3 -10
3 -10 -2 0 -4 -5 -79 -10 -166 -9 -140 -14 -171 -46 -265 -32 -93 -74 -199
-112 -282 l-12 -25 5 25 c5 21 4 22 -5 8 -6 -9 -15 -52 -20 -95 -13 -113 -25
-182 -33 -189 -23 -24 -54 259 -43 398 11 124 11 129 2 159 -7 24 -3 28 41 50
62 31 75 57 69 134 -3 33 -1 100 4 150 10 84 6 145 -8 145 -28 -1 -36 -23 -38
-98 -2 -93 -12 -160 -25 -168 -5 -3 -9 3 -9 13 0 65 -23 302 -36 371 -17 96
-55 208 -91 269 -35 60 -24 74 15 19 18 -25 37 -46 42 -46 6 0 -8 24 -30 53
-22 28 -40 56 -40 60 0 5 -20 34 -44 65 -43 57 -76 113 -76 130 0 5 12 14 26
21 23 10 30 8 61 -19 20 -18 41 -29 50 -26 11 4 13 2 9 -9 -3 -9 0 -15 8 -15
8 0 17 -12 20 -26 4 -15 10 -24 13 -21 8 9 -26 107 -47 137 -18 25 -18 26 7
55 l26 30 65 -70 c36 -39 87 -104 113 -145 27 -41 49 -68 49 -58 0 57 -89 266
-138 321 -14 16 -13 17 4 17 19 0 69 -46 110 -101 11 -15 41 -50 67 -79 44
-48 48 -51 43 -25 -3 15 -12 35 -21 45 -8 9 -15 23 -15 31 0 8 -14 43 -31 77
-17 35 -31 75 -32 90 -2 25 1 27 33 24 23 -2 58 -20 109 -59 74 -56 75 -56 43
-18 -19 22 -49 59 -69 82 -39 47 -66 113 -53 127 13 13 50 0 100 -33 25 -16
46 -29 47 -27 4 4 -38 110 -49 124 -18 21 26 14 56 -9 14 -11 31 -17 38 -13 7
4 10 4 6 -1 -11 -11 12 -36 26 -28 6 3 8 3 4 -2 -8 -9 50 -95 65 -95 5 0 7 14
3 31 -3 17 -6 40 -6 51 0 12 -4 16 -12 12 -7 -4 -8 -3 -4 4 9 14 -22 75 -34
67 -5 -3 -12 0 -16 6 -4 8 -3 9 4 5 21 -12 13 10 -17 51 -36 50 -135 125 -217
164 l-62 30 -46 -32 c-37 -26 -43 -35 -31 -42 8 -4 20 -5 27 -1 6 4 8 3 4 -4
-10 -17 106 -83 189 -107 30 -9 55 -18 55 -20 0 -2 -7 -11 -16 -19 -23 -24
-59 -20 -179 20 -59 19 -122 34 -138 32 l-31 -3 35 -36 c20 -21 56 -44 87 -55
28 -10 52 -24 52 -31 0 -7 -4 -13 -9 -13 -16 0 -106 43 -156 74 -27 18 -94 46
-147 64 -53 17 -157 55 -230 83 -73 29 -216 85 -318 124 -239 94 -291 103
-261 46 14 -25 122 -111 225 -178 44 -29 75 -53 69 -53 -27 0 -400 211 -448
252 -46 41 -116 75 -100 48 10 -16 -6 -11 -55 16 -25 13 -34 22 -20 18 44 -12
14 6 -121 72 -122 60 -302 170 -631 386 -160 105 -324 200 -355 206 -15 3 -22
10 -19 18 5 13 -31 44 -64 57 -11 4 -9 6 6 6 11 1 39 -13 61 -29 23 -17 79
-46 125 -65 46 -18 141 -59 213 -90 145 -63 437 -176 442 -171 2 2 -81 40
-184 86 -103 45 -242 107 -308 137 -66 31 -151 66 -190 79 -81 28 -115 44
-115 56 0 13 73 -1 225 -42 157 -43 213 -55 204 -46 -14 15 -353 106 -394 106
-49 0 -53 4 -30 26 16 16 8 18 175 -35 74 -24 99 -26 55 -5 l-30 14 35 -6 c49
-8 144 -43 295 -107 145 -63 296 -119 301 -114 2 2 -34 18 -81 36 -47 19 -82
38 -79 43 4 6 -3 8 -17 3 -14 -4 -19 -3 -12 2 8 6 -12 17 -55 32 -122 42 -152
54 -149 58 7 6 260 -84 377 -135 63 -27 149 -59 190 -70 118 -33 312 -74 318
-68 6 7 18 2 -218 81 -107 36 -207 67 -222 70 -15 2 -79 27 -142 55 -62 28
-117 50 -122 49 -19 -5 -101 14 -139 33 -56 27 -219 88 -354 133 -113 37 -194
76 -174 82 6 2 118 -8 249 -22 132 -14 365 -39 518 -56 153 -16 296 -33 316
-38 48 -11 374 -13 340 -2 -14 4 -77 11 -140 15 -149 9 -278 23 -450 50 -52 8
-146 19 -208 26 -62 6 -135 15 -163 20 -27 5 -123 14 -212 20 -368 23 -353 36
50 44 652 13 744 18 721 42 -10 9 -361 22 -406 15 -20 -4 -67 -1 -103 6 -169
31 -283 40 -393 31 -107 -9 -145 -2 -121 21 25 24 400 61 444 44 20 -8 11 -12
-55 -22 -122 -19 -163 -31 -84 -25 66 6 300 41 333 50 22 7 22 24 0 24 -15 0
-14 2 3 16 19 15 19 16 -1 9 -84 -27 -142 -35 -267 -35 -75 0 -188 -6 -250
-14 -155 -18 -168 -19 -168 -1 0 8 -8 15 -17 15 -13 0 -14 3 -5 12 15 15 16
31 1 22 -11 -7 -29 12 -29 31 0 6 5 3 10 -5 6 -9 10 -10 10 -3 0 7 -7 16 -16
21 -14 8 -13 12 10 29 33 27 33 31 -6 35 -37 4 -51 28 -16 28 22 1 58 21 58
33 0 3 -13 0 -29 -6 -15 -5 -37 -7 -47 -2 -12 5 -15 9 -6 12 21 8 13 29 -15
43 l-28 13 24 6 24 6 -25 12 c-21 9 -139 106 -219 178 -15 14 -38 30 -53 36
l-26 12 37 24 38 24 -35 -7 c-19 -3 -40 -10 -46 -15 -11 -9 -137 52 -150 72
-3 5 7 20 23 32 15 12 64 58 108 102 60 61 101 91 165 124 47 24 130 71 185
104 280 169 555 311 670 346 35 11 81 29 102 41 46 25 20 19 -92 -21 -120 -44
-67 -8 65 44 63 24 133 52 155 61 l40 17 -39 -5 c-22 -3 -80 -21 -130 -41
-119 -46 -379 -177 -378 -190 1 -12 -56 -44 -81 -45 -10 0 -15 4 -12 10 9 15
-22 2 -102 -43 -89 -50 -89 -61 -2 -15 82 42 99 49 99 40 0 -4 -21 -19 -47
-33 -150 -80 -174 -91 -179 -86 -3 3 6 22 21 41 29 38 102 82 310 184 136 68
161 99 29 38 -42 -20 -81 -33 -86 -29 -7 3 -8 1 -4 -5 4 -7 2 -12 -4 -12 -15
0 -178 -63 -206 -79 -6 -3 -39 -25 -75 -48 -128 -83 -151 -96 -185 -98 -27 -2
-32 1 -23 12 16 18 6 16 -35 -8 -22 -13 -33 -26 -29 -35 3 -10 0 -12 -10 -9
-8 4 -21 -1 -30 -9 -9 -9 -20 -16 -25 -16 -5 0 -17 -9 -27 -20 -28 -30 -4 -24
38 11 20 17 37 26 37 20 0 -12 -69 -61 -87 -61 -7 0 -13 -4 -13 -8 0 -5 -18
-18 -40 -31 -22 -12 -40 -19 -40 -15 0 4 -9 -1 -20 -11 -11 -10 -17 -22 -13
-28 3 -5 1 -7 -5 -3 -6 3 -16 1 -24 -6 -7 -7 -20 -14 -28 -16 -8 -2 8 16 35
40 127 111 130 122 10 33 -38 -29 -97 -70 -130 -92 -149 -100 -348 -323 -427
-477 -47 -94 -78 -248 -78 -396 0 -206 33 -526 72 -690 24 -101 62 -227 78
-260 41 -81 112 -120 217 -120 93 0 112 -15 31 -24 -77 -7 -164 13 -212 49
-57 44 -114 202 -156 431 -25 140 -24 131 -45 349 -39 401 2 603 169 826 166
223 322 348 751 599 116 68 256 154 312 192 110 74 341 190 463 231 144 49
318 85 520 106 122 14 608 5 698 -12z m-145 -214 c-7 -2 -19 -2 -25 0 -7 3 -2
5 12 5 14 0 19 -2 13 -5z m-463 -123 c-8 -5 -19 -10 -25 -10 -5 0 -3 5 5 10 8
5 20 10 25 10 6 0 3 -5 -5 -10z m1447 -6 c-3 -3 -12 -4 -19 -1 -8 3 -5 6 6 6
11 1 17 -2 13 -5z m-1516 -19 c-18 -8 -36 -15 -40 -15 -13 1 45 29 59 29 8 0
0 -6 -19 -14z m-81 -35 c-19 -11 -39 -19 -45 -19 -5 0 6 8 25 19 19 11 40 19
45 19 6 0 -6 -8 -25 -19z m1550 -20 c0 -5 -5 -10 -11 -10 -5 0 -7 5 -4 10 3 6
8 10 11 10 2 0 4 -4 4 -10z m-1674 -43 c-16 -12 -59 -44 -95 -70 -55 -40 -59
-42 -26 -12 40 37 135 105 145 104 3 0 -8 -10 -24 -22z m1977 -48 c-8 -8 -13
-7 -18 2 -5 8 -4 10 3 5 7 -4 12 -2 12 5 0 7 3 9 7 6 4 -4 2 -12 -4 -18z m-18
-18 c9 -16 -94 -109 -150 -136 -55 -26 -217 -68 -244 -63 -9 1 -21 -1 -27 -4
-6 -4 -19 -2 -28 5 -14 10 -10 12 23 15 75 5 234 51 289 84 30 18 68 49 85 70
34 39 42 43 52 29z m-2840 -30 c3 -6 -4 -15 -15 -21 -19 -10 -20 -10 -8 9 15
24 15 24 23 12z m-225 -16 c-7 -9 -15 -13 -19 -10 -3 3 1 10 9 15 21 14 24 12
10 -5z m155 -35 c-27 -12 -43 -12 -25 0 8 5 22 9 30 9 10 0 8 -3 -5 -9z m-58
-34 c-7 -6 -31 -21 -54 -34 -48 -26 -60 -13 -13 15 17 9 30 20 30 24 0 4 11 7
24 7 19 0 22 -3 13 -12z m-127 -76 c-14 -11 -29 -20 -35 -20 -5 0 4 9 20 20
38 25 48 25 15 0z m-71 -53 c-2 -1 -13 -9 -24 -17 -19 -14 -19 -14 -6 3 7 9
18 17 24 17 6 0 8 -1 6 -3z m-255 -42 c-9 -14 -21 -25 -27 -25 -6 0 0 11 13
25 13 14 25 25 27 25 2 0 -4 -11 -13 -25z m-113 -107 c-5 -15 -20 -25 -42 -30
-19 -3 -35 -5 -36 -4 -4 4 70 56 79 56 4 0 4 -10 -1 -22z m3444 -26 c-3 -3
-11 0 -18 7 -9 10 -8 11 6 5 10 -3 15 -9 12 -12z m57 -34 c14 -13 30 -24 37
-25 9 -3 127 -86 141 -100 3 -3 -13 4 -35 15 -22 11 -48 29 -59 41 -10 11 -23
18 -27 15 -5 -3 -20 6 -34 20 -27 27 -41 34 -29 15 4 -8 0 -8 -15 0 -20 11
-30 41 -12 41 4 0 19 -10 33 -22z m173 -188 c3 -6 -1 -7 -9 -4 -18 7 -21 14
-7 14 6 0 13 -4 16 -10z m85 -51 c27 -17 50 -33 50 -36 0 -4 -50 24 -95 54
-39 26 -4 12 45 -18z m171 -126 c13 -16 12 -17 -3 -4 -10 7 -18 15 -18 17 0 8
8 3 21 -13z m257 -216 c75 -79 83 -102 10 -30 -38 37 -57 50 -67 44 -11 -7 -9
-10 8 -16 12 -3 19 -10 16 -15 -3 -5 -16 -1 -28 10 -12 11 -31 26 -42 34 -17
13 -17 15 -3 16 9 0 19 -6 22 -12 2 -7 4 -3 2 9 -3 28 -25 54 -40 46 -6 -3 -8
-3 -4 2 4 4 2 15 -5 24 -26 34 71 -50 131 -112z m-4474 -57 c49 -96 41 -130
-9 -37 -16 28 -44 75 -62 104 -18 29 -33 56 -33 60 1 16 82 -83 104 -127z
m410 69 c-42 -12 -107 -76 -145 -144 -40 -70 -51 -64 -15 9 41 84 114 146 171
145 13 -1 8 -4 -11 -10z m116 -27 c0 -23 -37 -52 -87 -70 -32 -11 -66 -23 -77
-27 -16 -7 -17 -5 -7 13 12 23 68 60 120 78 43 16 51 17 51 6z m-562 -165 c8
-9 13 -20 9 -23 -6 -6 -42 47 -76 113 -34 69 -24 63 15 -7 20 -36 43 -73 52
-83z m646 86 c-20 -88 -100 -141 -219 -147 -89 -4 -92 8 -4 18 79 8 138 42
186 107 21 27 39 49 40 49 2 0 1 -12 -3 -27z m936 -72 c20 -8 7 -10 -65 -10
-49 1 -142 -2 -206 -6 -175 -12 -265 13 -101 27 106 9 342 2 372 -11z m3508
-77 c62 -19 119 -34 127 -34 19 0 372 -103 477 -139 236 -81 458 -188 603
-289 162 -112 354 -292 442 -412 75 -103 299 -435 368 -545 143 -227 298 -568
384 -840 73 -230 161 -649 161 -762 0 -40 -2 -44 -15 -33 -9 7 -18 10 -21 8
-3 -3 0 -93 7 -199 12 -199 4 -551 -12 -480 -13 60 -11 201 3 201 9 0 10 2 2
8 -17 10 -32 134 -39 302 -3 98 -11 169 -25 220 -26 98 -26 114 0 107 18 -5
19 -2 14 36 -10 62 -23 80 -24 32 l0 -40 -25 30 c-13 17 -25 37 -25 45 0 8 -9
26 -19 39 l-18 24 -7 -27 c-4 -15 -3 -32 1 -39 4 -7 8 -16 8 -22 1 -5 4 -21 8
-35 3 -14 8 -61 11 -105 16 -242 18 -305 11 -331 l-8 -29 -8 35 c-4 19 -13 87
-19 150 -6 63 -21 169 -35 234 -20 103 -21 121 -9 133 11 12 14 12 14 1 1 -7
8 0 16 15 8 16 13 36 11 45 -2 11 -8 5 -15 -18 l-12 -35 4 35 c3 19 2 29 -1
21 -5 -11 -7 -11 -14 0 -6 9 -7 2 -3 -17 4 -20 2 -34 -7 -39 -9 -6 -11 -2 -7
13 3 12 1 20 -4 19 -6 -1 -16 15 -24 36 -8 22 -9 37 -3 37 6 0 7 5 4 10 -4 6
-10 8 -15 5 -5 -3 -12 0 -16 6 -4 8 -3 9 4 5 7 -4 12 -2 12 3 0 6 -4 11 -10
11 -5 0 -10 10 -10 23 0 17 -2 19 -9 8 -10 -15 -37 37 -83 159 -28 72 -33 51
-14 -51 9 -46 13 -85 11 -88 -3 -2 -5 4 -5 15 0 16 -2 17 -10 4 -7 -11 -9 -5
-7 21 2 25 -1 35 -9 32 -6 -2 -21 20 -34 52 -30 74 -42 53 -20 -33 10 -37 20
-79 24 -94 3 -15 13 -34 22 -43 9 -9 16 -31 15 -53 -2 -143 -5 -192 -8 -154
-3 34 -8 42 -24 42 -12 0 -19 -7 -19 -20 0 -11 -7 -23 -16 -27 -18 -7 -36 15
-29 34 2 7 -1 15 -7 19 -7 5 -8 2 -3 -7 6 -10 5 -11 -3 -4 -18 17 -30 105 -36
270 -4 83 -9 162 -11 175 -3 14 -12 61 -21 105 -17 92 -32 135 -47 135 -6 0
-7 -16 -3 -42 15 -98 25 -241 26 -358 0 -104 -3 -135 -22 -189 -20 -55 -21
-65 -8 -75 11 -8 14 -28 12 -78 -3 -63 -5 -68 -27 -68 -46 0 -93 77 -153 250
-70 202 -85 240 -93 240 -5 0 -6 -60 -3 -143 7 -141 1 -217 -15 -217 -5 0 -12
34 -16 76 l-7 76 -46 -4 c-36 -3 -55 1 -84 19 -21 13 -48 23 -61 23 -14 0 -39
17 -66 45 -30 32 -51 45 -70 45 -16 0 -42 7 -59 16 -45 22 -99 29 -116 15 -8
-7 -20 -36 -26 -64 -16 -80 -24 -85 -44 -30 -73 203 -87 239 -132 345 -31 72
-50 89 -41 36 31 -167 54 -314 52 -317 -8 -8 -37 78 -52 157 -13 65 -21 86
-35 90 -16 4 -18 16 -18 98 l0 94 -40 0 c-33 0 -40 3 -40 20 0 13 -7 20 -20
20 -20 0 -26 11 -13 23 3 4 12 2 20 -4 10 -9 13 -8 13 5 0 9 5 16 10 16 6 0
10 9 10 20 0 15 -7 20 -24 20 -18 0 -26 7 -29 23 -4 18 -4 17 -6 -6 0 -17 -5
-26 -11 -22 -6 4 -17 2 -25 -5 -11 -9 -12 -7 -8 9 3 12 0 28 -7 36 -7 8 -10
22 -6 30 3 9 1 15 -7 14 -38 -5 -57 2 -57 21 0 13 -7 20 -20 20 -13 0 -20 7
-20 20 0 13 -7 20 -20 20 -13 0 -20 7 -20 20 0 12 -7 20 -16 20 -19 0 -31 12
-67 68 -15 23 -32 40 -37 37 -5 -3 -18 7 -28 23 -17 29 -18 29 -46 15 -24 -13
-28 -13 -24 -1 4 8 -1 14 -12 14 -16 0 -17 -2 -2 -22 9 -12 29 -27 44 -33 30
-14 40 -35 11 -24 -15 6 -16 5 -3 -9 8 -9 19 -13 24 -10 5 3 6 0 2 -7 -9 -13
52 -101 103 -148 19 -18 31 -33 25 -33 -21 0 -66 40 -105 91 -22 30 -45 53
-50 51 -5 -1 -8 2 -7 7 4 12 -83 141 -94 141 -4 0 -8 -19 -7 -42 0 -36 2 -39
9 -20 11 25 16 27 26 10 4 -6 3 -8 -3 -5 -6 4 -8 -15 -5 -49 4 -49 3 -56 -13
-52 -9 1 -27 19 -39 39 -11 21 -40 69 -63 109 -24 39 -43 75 -43 80 0 4 -6 10
-14 13 -20 8 -18 -2 30 -172 17 -57 24 -107 23 -160 l-1 -76 -13 85 c-13 84
-27 129 -83 280 -26 69 -30 75 -55 73 -15 -1 -25 2 -23 6 5 7 -20 125 -42 206
-5 17 -8 42 -8 57 1 15 -1 25 -5 23 -7 -5 -30 67 -23 74 3 3 9 -1 14 -9 6 -8
10 -11 10 -7 0 5 -9 20 -20 34 -11 14 -20 34 -20 44 0 11 -7 19 -15 19 -8 0
-16 8 -17 18 0 9 -2 28 -3 42 -2 14 -6 42 -10 63 -9 44 -1 46 42 9 32 -28 40
-48 43 -107 1 -26 3 -27 10 -10 5 13 7 2 5 -33 -3 -38 0 -50 8 -45 7 4 5 -2
-3 -12 -14 -17 -13 -18 3 -12 11 4 16 3 12 -3 -3 -6 -1 -10 5 -10 6 0 9 -4 6
-9 -3 -5 10 -18 28 -29 20 -12 33 -15 30 -8 -3 7 7 18 21 26 14 7 25 17 25 22
0 4 7 8 15 8 17 0 17 -2 5 157 -7 87 -15 132 -29 160 -11 21 -29 72 -40 113
-38 144 -99 292 -181 448 -28 50 -46 92 -42 92 10 0 26 -28 84 -139 27 -52 55
-99 62 -105 8 -6 26 -30 40 -53 14 -24 35 -49 46 -55 11 -7 20 -21 20 -30 0
-10 7 -18 16 -18 12 0 15 -6 11 -21 -4 -14 -2 -19 7 -16 9 4 11 -2 8 -18 -3
-20 1 -23 40 -28 74 -8 191 -47 228 -76 39 -31 86 -49 113 -43 19 4 24 32 5
32 -10 0 -9 3 1 9 15 10 22 5 -124 91 -49 29 -94 58 -100 65 -5 6 -31 24 -56
38 -53 30 -80 57 -57 57 31 0 135 -42 184 -74 77 -51 134 -78 152 -71 9 3 13
3 9 -1 -8 -8 57 -44 80 -44 18 0 55 39 48 51 -4 5 -11 7 -16 4 -5 -4 -9 -1 -9
5 0 6 -4 9 -9 5 -6 -3 -39 12 -74 33 -35 22 -74 43 -88 47 -13 4 -26 11 -29
16 -3 4 -52 30 -110 58 -80 38 -110 58 -128 84 -13 19 -79 89 -147 157 -69 67
-125 124 -125 126 0 13 27 0 64 -31 41 -33 66 -44 66 -27 0 4 -23 36 -50 71
-28 36 -50 67 -50 69 0 2 8 1 18 -3 9 -3 68 -22 130 -41z m-132 -182 c120 -91
217 -171 222 -182 4 -10 -48 -23 -56 -15 -4 3 0 11 8 16 13 9 13 10 -1 6 -8
-3 -26 2 -40 9 l-24 15 25 -7 25 -6 -24 17 c-19 15 -25 15 -32 4 -7 -11 -9
-11 -9 -1 0 7 10 16 22 21 18 6 19 9 5 14 -10 4 -22 -1 -29 -11 -7 -9 -24 -23
-36 -30 -22 -12 -23 -12 -17 7 5 16 2 21 -12 21 -21 0 -50 59 -30 61 8 0 8 2
0 6 -24 9 -13 20 15 16 l27 -5 -25 21 c-31 25 -37 26 -44 4 -3 -10 -4 -5 -2
10 2 15 1 25 -2 23 -9 -10 -63 25 -56 36 4 7 3 8 -5 4 -6 -4 -14 -1 -17 8 -3
8 -11 12 -19 10 -7 -3 -22 10 -34 29 -31 50 -26 54 18 16 21 -19 88 -71 147
-117z m-3760 68 c56 -13 296 -101 290 -107 -2 -3 -36 7 -74 21 -39 14 -90 27
-114 30 -112 14 -198 39 -198 58 0 11 45 10 96 -2z m3461 -96 c-6 -6 -116 49
-117 59 0 4 27 -7 61 -24 34 -16 59 -32 56 -35z m248 28 c-3 -3 -11 0 -18 7
-9 10 -8 11 6 5 10 -3 15 -9 12 -12z m-3575 -12 c8 -5 11 -10 5 -10 -5 0 -17
5 -25 10 -8 5 -10 10 -5 10 6 0 17 -5 25 -10z m211 -45 c19 -8 27 -14 19 -14
-14 0 -72 28 -59 29 4 0 22 -7 40 -15z m-380 -98 c73 -33 259 -143 436 -260
100 -67 279 -180 396 -251 118 -72 214 -136 214 -143 0 -16 -12 -17 -38 -3
-10 6 -19 8 -19 6 0 -3 17 -14 38 -25 40 -20 82 -61 64 -61 -6 0 -30 7 -52 16
-70 28 -52 11 36 -36 86 -45 101 -60 61 -60 -45 0 -163 54 -410 190 -43 23
-80 40 -83 37 -3 -2 17 -21 44 -41 27 -20 56 -43 63 -52 41 -50 -76 36 -399
293 -126 100 -280 211 -341 248 -61 37 -111 71 -111 75 0 24 25 13 121 -52
l104 -70 -60 57 c-33 32 -53 54 -45 49 109 -65 269 -178 260 -184 -8 -5 -7 -9
5 -13 9 -4 13 -3 10 3 -9 15 8 12 33 -5 12 -9 59 -36 104 -60 46 -25 79 -45
74 -45 -5 0 -52 23 -105 50 -53 28 -85 41 -71 30 14 -11 61 -39 105 -62 44
-22 105 -57 135 -76 30 -20 59 -35 63 -34 4 1 17 -2 27 -8 11 -6 20 -8 20 -6
0 3 -36 26 -80 52 -44 25 -80 48 -80 50 0 2 37 -14 83 -37 102 -51 90 -36 -20
25 -45 25 -126 74 -180 109 -197 128 -374 228 -409 232 -14 1 -31 8 -37 15
-10 10 -7 10 11 0 26 -13 45 -4 22 11 -8 5 -31 14 -51 19 -20 6 -42 16 -48 24
-16 19 62 14 110 -7z m3684 -103 c9 -15 12 -23 6 -20 -11 7 -35 46 -28 46 3 0
12 -12 22 -26z m-4626 -184 c7 -74 15 -156 18 -182 8 -69 -12 -61 -25 10 -14
72 -25 367 -13 332 5 -14 14 -86 20 -160z m101 5 c112 -302 240 -404 508 -405
69 -1 83 -3 68 -12 -33 -19 -146 -21 -224 -4 -149 31 -229 88 -295 207 -36 66
-78 185 -97 274 -6 28 -13 59 -15 70 l-5 20 10 -20 c5 -11 27 -69 50 -130z
m849 95 c97 -49 280 -195 592 -475 30 -27 64 -55 75 -62 18 -12 18 -12 -1 -6
-11 3 5 -16 35 -43 108 -96 165 -153 158 -160 -4 -4 -19 1 -34 11 -17 11 -24
12 -18 4 4 -8 -7 1 -26 19 -18 19 -72 66 -119 105 -47 40 -134 117 -192 173
-58 55 -158 140 -223 188 -64 48 -149 117 -189 154 -39 37 -90 82 -112 100
-22 17 -37 32 -33 32 4 0 43 -18 87 -40z m9 -81 c64 -61 141 -129 170 -151 29
-22 56 -46 59 -54 7 -18 141 -134 155 -134 5 0 -12 21 -39 46 -40 38 -34 35
34 -18 167 -130 393 -332 343 -307 l-24 12 17 -27 c10 -14 14 -26 9 -26 -16 0
-77 47 -75 57 1 6 -4 10 -12 9 -7 0 -52 34 -99 77 -46 42 -122 105 -167 138
-45 34 -135 112 -198 173 -64 61 -143 134 -176 161 -33 27 -83 71 -111 97 -50
46 -51 51 -11 57 4 0 60 -49 125 -110z m3760 26 c-3 -3 -9 2 -12 12 -6 14 -5
15 5 6 7 -7 10 -15 7 -18z m-3663 -221 c77 -78 164 -156 193 -174 28 -17 52
-33 52 -34 0 -2 -14 -3 -32 -3 -27 0 -55 23 -207 170 -199 191 -231 225 -231
245 0 18 51 -28 225 -204z m-139 64 c44 -46 115 -120 160 -166 44 -45 78 -84
76 -87 -3 -3 0 -5 8 -5 10 0 10 -3 0 -15 -9 -11 -9 -15 -1 -15 7 0 9 -4 6 -10
-3 -5 -1 -10 4 -10 6 0 11 -5 11 -11 0 -25 -210 213 -343 389 -26 34 9 3 79
-70z m319 -98 c3 -6 -1 -7 -9 -4 -18 7 -21 14 -7 14 6 0 13 -4 16 -10z m3402
-215 c44 -108 91 -322 113 -524 9 -80 8 -102 -6 -143 -9 -28 -20 -46 -24 -41
-5 4 -13 60 -19 123 -16 155 -46 335 -77 450 -35 130 -43 171 -37 187 10 25
25 9 50 -52z m-2702 -206 c32 -27 64 -48 69 -46 5 2 21 -8 35 -20 14 -13 57
-47 94 -74 117 -87 65 -66 -65 26 -117 82 -336 257 -382 305 -22 23 147 -106
249 -191z m-700 141 c21 -22 37 -40 34 -40 -3 0 -23 18 -44 40 -21 22 -37 40
-34 40 3 0 23 -18 44 -40z m145 -57 c0 -11 -48 32 -70 62 -8 11 4 2 28 -20 23
-22 42 -41 42 -42z m40 35 c0 -14 -19 1 -31 25 -12 22 -12 22 10 3 11 -11 21
-23 21 -28z m365 -46 c28 -17 66 -47 84 -66 19 -20 40 -36 47 -36 6 0 18 -7
25 -17 13 -15 12 -15 -8 -5 -27 15 -36 15 -27 1 3 -6 -22 12 -57 41 -35 28
-63 55 -62 60 2 5 -9 16 -25 24 -15 8 -43 32 -62 53 l-35 38 35 -31 c19 -17
58 -45 85 -62z m-1415 24 c19 -13 53 -33 75 -46 36 -20 37 -21 10 -15 -28 6
-135 69 -135 80 0 10 17 4 50 -19z m1095 -26 c10 -11 16 -20 13 -20 -3 0 -13
9 -23 20 -10 11 -16 20 -13 20 3 0 13 -9 23 -20z m55 -55 c13 -14 21 -25 18
-25 -2 0 -15 11 -28 25 -13 14 -21 25 -18 25 2 0 15 -11 28 -25z m211 -22 c13
-16 12 -17 -3 -4 -10 7 -18 15 -18 17 0 8 8 3 21 -13z m150 -50 c13 -16 12
-17 -3 -4 -10 7 -18 15 -18 17 0 8 8 3 21 -13z m2764 -291 c14 -103 29 -218
34 -257 19 -133 23 -257 11 -342 -8 -57 -16 -81 -22 -75 -11 11 -44 150 -59
247 -10 71 -29 634 -21 654 13 34 35 -53 57 -227z m-2387 191 c11 -10 29 -23
39 -30 17 -11 17 -12 1 -12 -10 -1 -18 4 -18 9 0 6 -4 10 -10 10 -5 0 -24 9
-42 20 -27 17 -29 20 -12 20 12 0 30 -8 42 -17z m-868 -119 c23 -9 39 -18 37
-20 -2 -3 -24 4 -48 15 -54 24 -45 27 11 5z m-443 -68 c22 -24 32 -48 37 -87
24 -198 126 -649 218 -974 31 -109 80 -355 78 -394 0 -3 -20 51 -44 120 -60
173 -110 360 -216 805 -87 369 -139 569 -156 595 -13 22 52 -29 83 -65z m2101
-86 c12 -19 11 -20 -8 -8 -11 7 -20 16 -20 20 0 15 15 8 28 -12z m-1859 -19
c30 -16 32 -19 13 -23 -14 -4 -28 2 -43 18 -27 28 -17 30 30 5z m3914 4 c-3
-9 -8 -14 -10 -11 -3 3 -2 9 2 15 9 16 15 13 8 -4z m-1832 -32 c13 -17 13 -17
-6 -3 -11 8 -22 16 -24 17 -2 2 0 3 6 3 6 0 17 -8 24 -17z m-161 -3 c0 -5 -2
-10 -4 -10 -3 0 -8 5 -11 10 -3 6 -1 10 4 10 6 0 11 -4 11 -10z m2188 -15 c-3
-3 -9 2 -12 12 -6 14 -5 15 5 6 7 -7 10 -15 7 -18z m-2988 -25 c8 -5 11 -10 5
-10 -5 0 -17 5 -25 10 -8 5 -10 10 -5 10 6 0 17 -5 25 -10z m485 -35 c46 -28
40 -34 -8 -8 -18 9 -38 18 -45 19 -23 4 -27 14 -6 14 10 0 37 -12 59 -25z
m-500 -15 c3 -6 -1 -7 -9 -4 -18 7 -21 14 -7 14 6 0 13 -4 16 -10z m703 -14
c23 -23 -1 -21 -53 4 l-40 19 38 -3 c21 -2 46 -11 55 -20z m-1422 6 c10 -6 27
-42 20 -42 -1 0 -13 11 -26 25 -22 23 -18 34 6 17z m1081 -18 c-3 -3 -12 -4
-19 -1 -8 3 -5 6 6 6 11 1 17 -2 13 -5z m-687 -66 c0 -5 -9 -4 -20 2 -11 6
-20 12 -20 14 0 2 9 2 20 -1 11 -3 20 -9 20 -15z m980 2 c-8 -5 -19 -10 -25
-10 -5 0 -3 5 5 10 8 5 20 10 25 10 6 0 3 -5 -5 -10z m-1267 -70 c-5 -5 -42
41 -43 53 0 4 11 -5 24 -20 13 -15 22 -30 19 -33z m470 53 c-7 -2 -21 -2 -30
0 -10 3 -4 5 12 5 17 0 24 -2 18 -5z m737 -3 c-8 -5 -19 -10 -25 -10 -5 0 -3
5 5 10 8 5 20 10 25 10 6 0 3 -5 -5 -10z m-740 -146 c0 -3 -13 4 -30 16 -16
12 -30 24 -30 26 0 3 14 -4 30 -16 17 -12 30 -24 30 -26z m812 -121 c-14 -12
-14 -13 1 -13 20 0 52 -60 60 -112 l6 -38 -48 0 c-46 0 -49 -1 -55 -31 -3 -17
-7 -55 -8 -83 -3 -99 -17 147 -16 282 l1 134 37 -64 c33 -56 36 -64 22 -75z
m154 94 c44 -68 54 -122 53 -276 -1 -80 -5 -159 -8 -176 -7 -27 -8 -25 -15 25
-34 248 -50 352 -61 395 -19 73 -5 88 31 32z m-149 -399 c-2 -13 -4 -3 -4 22
0 25 2 35 4 23 2 -13 2 -33 0 -45z m-30 -50 c-3 -7 -5 -2 -5 12 0 14 2 19 5
13 2 -7 2 -19 0 -25z m4090 -155 c-3 -10 -5 -2 -5 17 0 19 2 27 5 18 2 -10 2
-26 0 -35z m-4177 -17 c0 -8 7 -22 16 -30 8 -9 11 -16 5 -16 -10 0 -41 39 -41
52 0 5 5 8 10 8 6 0 10 -6 10 -14z m4177 -73 c-3 -10 -5 -4 -5 12 0 17 2 24 5
18 2 -7 2 -21 0 -30z m-5693 -1 c8 -16 28 -78 44 -139 17 -60 47 -152 67 -204
49 -120 134 -281 146 -273 10 6 54 -84 45 -93 -15 -15 -75 68 -169 233 -80
142 -117 250 -162 472 -8 40 9 43 29 4z m3603 -54 c-2 -13 -4 -3 -4 22 0 25 2
35 4 23 2 -13 2 -33 0 -45z m-3159 -459 c7 -38 9 -76 4 -89 -7 -18 -12 -9 -30
53 -24 82 -27 112 -12 102 6 -3 10 -1 10 6 0 33 18 -13 28 -72z m2923 -40 c-5
-13 -10 -19 -10 -12 -1 15 10 45 15 40 3 -2 0 -15 -5 -28z m-1250 -12 c-10 -9
-11 -8 -5 6 3 10 9 15 12 12 3 -3 0 -11 -7 -18z m1236 -39 c-3 -8 -6 -5 -6 6
-1 11 2 17 5 13 3 -3 4 -12 1 -19z m-2895 -30 c-8 -8 -9 -4 -5 13 4 13 8 18
11 10 2 -7 -1 -18 -6 -23z m1116 -29 c-23 -33 -45 -54 -47 -48 -2 7 1 15 8 17
6 2 11 8 11 12 0 9 61 80 68 80 1 0 -17 -27 -40 -61z m-234 -30 c-8 -24 -21
-71 -29 -104 -13 -58 -13 -59 -14 -19 -1 22 6 54 14 71 8 16 16 40 17 54 3 22
19 51 26 45 1 -2 -5 -23 -14 -47z m-917 -70 c23 -35 69 -102 101 -149 57 -81
137 -228 130 -236 -5 -4 -59 61 -110 131 -46 64 -105 163 -148 245 -19 36 -41
74 -49 85 -16 19 -15 19 9 4 14 -9 44 -44 67 -80z m1670 4 c-2 -16 -4 -3 -4
27 0 30 2 43 4 28 2 -16 2 -40 0 -55z m73 57 c0 -13 7 -20 20 -20 12 0 17 -5
14 -14 -3 -8 0 -17 6 -21 6 -4 8 -16 4 -28 -6 -19 -5 -20 10 -8 9 7 16 26 16
42 0 15 4 31 10 34 6 4 7 -11 4 -42 -6 -46 -23 -93 -24 -65 0 6 -4 12 -10 12
-5 0 -10 -24 -10 -54 0 -30 -4 -58 -10 -61 -5 -3 -9 -21 -9 -38 l2 -32 6 35
c4 22 9 30 14 23 9 -15 -2 -63 -14 -63 -5 0 -15 -12 -21 -26 -7 -16 -23 -27
-41 -31 -24 -5 -27 -9 -22 -27 4 -12 7 -27 7 -34 1 -7 7 -11 15 -8 16 6 16 1
3 -24 -7 -12 -17 -16 -31 -13 -14 4 -26 0 -35 -11 -8 -11 -14 -13 -19 -7 -7
13 19 43 29 33 4 -3 4 9 1 28 -7 42 -15 52 -15 19 0 -17 -3 -20 -9 -11 -13 22
-14 192 -1 192 7 0 9 -8 5 -20 -4 -11 -2 -20 4 -20 6 0 11 9 11 20 0 17 7 20
45 20 l45 0 0 80 c0 80 0 80 -26 80 -21 0 -25 -4 -21 -20 3 -11 2 -20 -2 -20
-4 0 -8 27 -8 60 0 59 1 60 29 60 21 0 28 -5 28 -20z m-537 -30 c3 -11 2 -18
-3 -15 -4 3 -14 -3 -21 -12 -12 -15 -12 -16 4 -10 19 7 20 2 7 -28 -7 -17 -9
-17 -9 -2 -1 9 -6 17 -12 17 -7 0 -9 -10 -7 -25 3 -13 2 -22 -2 -20 -11 7 -28
-45 -24 -75 1 -14 3 -25 4 -25 1 0 3 -13 5 -28 3 -20 -7 -45 -30 -81 -18 -28
-39 -72 -46 -96 -13 -49 -29 -74 -29 -48 0 70 131 468 154 468 2 0 6 -9 9 -20z
m-1035 -105 l16 -20 -21 20 c-12 11 -24 34 -27 50 l-6 30 11 -30 c6 -16 19
-39 27 -50z m-657 -46 c11 -57 35 -192 54 -299 19 -107 49 -283 68 -390 112
-629 116 -655 124 -817 4 -82 2 -97 -21 -146 -42 -93 -153 -200 -182 -176 -10
8 -28 4 -71 -17 -32 -15 -60 -31 -63 -34 -9 -12 -45 -23 -64 -21 -12 2 -16 -1
-11 -10 5 -8 4 -10 -3 -5 -6 4 -29 -3 -52 -14 -22 -11 -40 -18 -40 -15 0 10
123 64 132 59 4 -3 8 -1 8 3 0 5 30 22 68 38 72 31 139 72 186 114 16 14 26
20 21 12 -5 -9 -3 -12 6 -9 8 3 13 12 13 21 -1 9 3 14 8 11 5 -3 8 0 7 7 -2 8
6 30 16 49 39 69 23 261 -56 688 -81 437 -118 651 -143 822 -15 96 -29 191
-32 210 -3 19 -3 32 0 29 4 -3 15 -53 27 -110z m1296 79 c-3 -8 -6 -5 -6 6 -1
11 2 17 5 13 3 -3 4 -12 1 -19z m848 12 c3 -5 1 -10 -4 -10 -6 0 -11 5 -11 10
0 6 2 10 4 10 3 0 8 -4 11 -10z m-604 -37 c-12 -20 -14 -14 -5 12 4 9 9 14 11
11 3 -2 0 -13 -6 -23z m556 -10 c-3 -10 -5 -4 -5 12 0 17 2 24 5 18 2 -7 2
-21 0 -30z m40 -35 c1 -29 -1 -47 -4 -40 -2 6 -8 10 -13 7 -4 -3 -7 3 -5 12
11 52 16 73 18 73 1 0 3 -24 4 -52z m155 0 c-8 -8 -9 -4 -5 13 4 13 8 18 11
10 2 -7 -1 -18 -6 -23z m-779 -20 c-22 -58 -23 -58 -23 -7 0 28 3 39 9 31 7
-11 9 -11 14 2 4 9 9 16 12 16 2 0 -3 -19 -12 -42z m-703 -29 c0 -10 5 -19 11
-19 5 0 7 -4 4 -10 -3 -5 -2 -10 2 -10 5 0 9 -12 10 -27 1 -25 -1 -24 -17 12
-26 59 -34 89 -21 81 6 -4 11 -16 11 -27z m1477 -1 c-3 -7 -5 -2 -5 12 0 14 2
19 5 13 2 -7 2 -19 0 -25z m-624 -23 c-5 -13 -23 -22 -23 -11 0 15 14 35 21
31 4 -3 6 -12 2 -20z m394 -17 c-3 -8 -6 -5 -6 6 -1 11 2 17 5 13 3 -3 4 -12
1 -19z m-1130 -20 c-3 -7 -5 -2 -5 12 0 14 2 19 5 13 2 -7 2 -19 0 -25z m5191
-9 c-3 -20 -5 -19 -9 9 -3 20 -2 29 4 23 5 -5 7 -19 5 -32z m-5331 -81 c38
-51 72 -101 76 -111 4 -9 17 -21 30 -26 14 -5 35 -26 47 -46 25 -41 36 -41 21
-1 -17 43 -3 30 22 -21 13 -27 43 -81 67 -121 23 -40 40 -75 38 -77 -11 -11
-284 339 -374 480 -38 58 5 14 73 -77z m167 17 c9 -30 19 -62 22 -72 5 -15 4
-16 -5 -3 -6 8 -16 33 -22 55 -5 22 -12 48 -15 58 -3 9 -3 17 0 17 2 0 12 -25
20 -55z m1083 13 c-3 -7 -5 -2 -5 12 0 14 2 19 5 13 2 -7 2 -19 0 -25z m4060
-95 c-3 -10 -5 -4 -5 12 0 17 2 24 5 18 2 -7 2 -21 0 -30z m-4085 -8 c-2 -14
-6 -25 -8 -25 -2 0 -4 11 -4 25 0 14 4 25 9 25 4 0 6 -11 3 -25z m4078 -38 c0
-12 -5 -29 -10 -37 -7 -11 -9 -3 -7 26 2 42 17 52 17 11z m-4103 -89 c-3 -7
-5 -2 -5 12 0 14 2 19 5 13 2 -7 2 -19 0 -25z m4083 21 c0 8 2 12 5 9 3 -3 1
-16 -4 -29 -5 -13 -10 -19 -10 -12 -1 6 -4 20 -7 30 -5 15 -4 15 5 3 9 -12 11
-13 11 -1z m-5010 -29 c6 -11 8 -20 6 -20 -3 0 -10 9 -16 20 -6 11 -8 20 -6
20 3 0 10 -9 16 -20z m110 0 c6 -11 8 -20 6 -20 -3 0 -10 9 -16 20 -6 11 -8
20 -6 20 3 0 10 -9 16 -20z m363 0 c-3 -12 -8 -19 -11 -16 -5 6 5 36 12 36 2
0 2 -9 -1 -20z m444 -67 c-3 -10 -5 -2 -5 17 0 19 2 27 5 18 2 -10 2 -26 0
-35z m4083 27 c0 -5 -2 -10 -4 -10 -3 0 -8 5 -11 10 -3 6 -1 10 4 10 6 0 11
-4 11 -10z m-14 -76 c-4 -18 -10 -34 -14 -34 -4 0 -8 -11 -8 -25 -3 -36 -12
-55 -26 -54 -9 0 -9 2 -2 5 7 3 10 14 7 24 -3 12 0 20 7 20 7 0 9 8 5 20 -4
12 -2 20 5 20 6 0 8 5 5 10 -3 6 -1 10 4 10 6 0 11 7 11 16 0 8 -5 12 -11 8
-7 -4 -6 3 2 17 16 30 23 11 15 -37z m-4815 29 c13 -16 12 -17 -3 -4 -17 13
-22 21 -14 21 2 0 10 -8 17 -17z m-31 -95 c0 -13 -5 -9 -31 19 l-24 26 27 -19
c15 -10 28 -22 28 -26z m34 -16 c3 -5 -1 -9 -9 -9 -8 0 -12 4 -9 9 3 4 7 8 9
8 2 0 6 -4 9 -8z m66 -82 c30 -43 18 -37 -16 7 -15 20 -23 33 -16 29 6 -3 21
-20 32 -36z m510 10 c0 -5 -2 -10 -4 -10 -3 0 -8 5 -11 10 -3 6 -1 10 4 10 6
0 11 -4 11 -10z m4190 1 c0 -21 -13 -41 -22 -35 -6 4 -8 -2 -4 -17 6 -20 5
-21 -4 -7 -7 11 -7 25 0 42 9 25 30 36 30 17z m-4427 -94 c-4 -6 1 -8 11 -4
12 5 15 3 9 -6 -4 -6 -13 -34 -19 -62 -12 -49 -12 -49 -12 45 0 69 2 87 8 66
5 -16 6 -34 3 -39z m324 16 c-3 -10 -5 -2 -5 17 0 19 2 27 5 18 2 -10 2 -26 0
-35z m20 25 c-3 -8 -6 -5 -6 6 -1 11 2 17 5 13 3 -3 4 -12 1 -19z m-214 -146
c2 -32 1 -48 -4 -40 -5 7 -8 36 -8 63 1 60 6 50 12 -23z m52 -128 c-40 -226
-59 -272 -61 -146 0 37 2 56 5 43 l6 -23 13 23 c16 31 22 138 10 163 -9 16 -7
18 10 14 17 -5 21 1 25 36 3 22 2 43 -4 44 -5 2 -9 9 -9 15 0 7 7 5 16 -4 14
-15 13 -30 -11 -165z m4154 84 c-32 -83 -57 -138 -63 -138 -3 0 8 30 23 68 15
37 31 79 35 95 3 15 11 27 16 27 5 0 0 -24 -11 -52z m-4222 -40 c-3 -7 -5 -2
-5 12 0 14 2 19 5 13 2 -7 2 -19 0 -25z m20 0 c-3 -8 -6 -5 -6 6 -1 11 2 17 5
13 3 -3 4 -12 1 -19z m11 -44 c8 5 10 2 6 -8 -3 -9 -9 -16 -13 -16 -12 0 -31
24 -31 39 0 11 3 11 13 -4 8 -10 19 -15 25 -11z m840 -185 c-6 -16 -12 -28
-14 -26 -5 5 13 57 20 57 3 0 0 -14 -6 -31z m-919 -401 c-79 -207 -191 -310
-366 -338 -115 -19 -152 -32 -216 -72 -54 -34 -58 -35 -28 -8 45 39 95 61 209
94 120 34 184 67 242 125 58 58 88 105 127 197 55 132 82 133 32 2z m-1599
-258 c0 -9 -51 -40 -65 -40 -9 0 48 49 58 50 4 0 7 -4 7 -10z m1949 -55 c-6
-22 -17 -46 -24 -54 -11 -11 -11 -5 -5 30 12 60 21 82 31 72 5 -5 4 -26 -2
-48z m1060 42 c-30 -25 -120 -77 -131 -77 -9 0 -19 -7 -22 -16 -3 -9 -11 -14
-17 -12 -6 2 -24 -8 -39 -22 -26 -24 -185 -110 -204 -110 -8 0 147 104 201
135 15 8 43 25 61 35 18 11 38 17 44 14 6 -4 8 -2 4 4 -6 10 94 65 103 56 2
-2 2 -6 0 -7z m-3099 -37 c-8 -5 -19 -10 -25 -10 -5 0 -3 5 5 10 8 5 20 10 25
10 6 0 3 -5 -5 -10z m4380 -24 c0 -3 -25 -19 -55 -36 -52 -30 -73 -49 -39 -36
9 3 12 2 9 -5 -4 -6 -13 -8 -21 -5 -7 3 -19 0 -26 -7 -27 -25 -130 -88 -139
-85 -21 7 61 69 161 122 111 59 110 58 110 52z m55 -6 c-3 -5 -12 -10 -18 -10
-7 0 -6 4 3 10 19 12 23 12 15 0z m-4525 -10 c-8 -5 -19 -10 -25 -10 -5 0 -3
5 5 10 8 5 20 10 25 10 6 0 3 -5 -5 -10z m3324 -8 c-11 -9 -49 -48 -83 -85
-41 -44 -60 -60 -56 -45 10 35 61 93 79 92 9 -1 13 2 10 7 -3 5 10 18 28 29
40 24 50 26 22 2z m-3478 -61 c-22 -13 -49 -31 -59 -39 -9 -8 -20 -12 -23 -9
-11 11 65 80 81 73 8 -3 14 -2 14 2 -3 18 2 22 15 10 11 -11 7 -17 -28 -37z"/>
<path d="M3555 8555 c-5 -1 -43 -8 -83 -15 -40 -7 -71 -14 -69 -16 7 -7 151
17 162 27 9 9 8 10 -10 4z"/>
<path d="M3665 8535 c-5 -2 -36 -9 -68 -15 -32 -7 -57 -14 -54 -16 8 -8 177
19 177 28 0 8 -36 10 -55 3z"/>
<path d="M3433 8493 c-35 -8 -63 -18 -63 -23 0 -17 44 -17 83 1 23 10 50 19
60 19 9 0 17 5 17 10 0 13 -21 12 -97 -7z"/>
<path d="M3673 8481 c-62 -10 -64 -21 -5 -21 40 0 52 4 52 15 0 8 -1 14 -2 14
-2 -1 -22 -5 -45 -8z"/>
<path d="M3763 8483 c9 -2 23 -2 30 0 6 3 -1 5 -18 5 -16 0 -22 -2 -12 -5z"/>
<path d="M3054 8455 c-18 -14 -18 -14 4 -8 12 3 22 9 22 14 0 12 -3 11 -26 -6z"/>
<path d="M3567 8440 c-9 -11 -12 -20 -6 -20 5 0 8 -4 5 -8 -2 -4 3 -8 13 -8
10 0 18 6 18 12 0 7 -7 9 -16 6 -14 -5 -14 -3 -2 11 7 9 18 14 24 10 6 -3 7
-1 3 5 -10 17 -19 15 -39 -8z"/>
<path d="M3640 8430 c0 -5 21 -9 48 -9 42 1 44 2 17 9 -44 11 -65 11 -65 0z"/>
<path d="M3295 8384 c-109 -39 -226 -86 -223 -90 3 -2 49 12 104 32 54 20 113
40 129 46 31 11 57 29 40 27 -6 0 -28 -7 -50 -15z"/>
<path d="M2528 8279 c-21 -11 -38 -22 -38 -24 0 -3 18 4 40 15 22 11 40 23 40
25 0 7 0 7 -42 -16z"/>
<path d="M3035 8280 c-3 -6 1 -7 9 -4 18 7 21 14 7 14 -6 0 -13 -4 -16 -10z"/>
<path d="M3930 8209 c25 -11 47 -24 48 -30 2 -5 8 -9 13 -9 6 0 7 5 4 10 -4 7
9 9 37 5 36 -5 39 -4 18 5 -13 6 -33 10 -45 9 -11 -1 -37 6 -57 15 -21 9 -43
16 -50 15 -7 0 7 -9 32 -20z"/>
<path d="M3709 8164 c-64 -19 -98 -62 -170 -207 -32 -67 -71 -134 -87 -150
-15 -16 -75 -61 -134 -99 -142 -92 -143 -101 -2 -72 98 20 199 15 246 -13 18
-11 59 -37 92 -56 34 -21 78 -39 105 -42 25 -4 58 -11 72 -17 72 -27 235 65
294 167 24 40 28 43 42 30 23 -23 37 -18 58 22 11 21 39 61 63 90 43 54 54 76
27 53 -9 -7 -15 -8 -15 -2 0 8 21 22 40 26 3 1 18 10 33 20 l28 19 -58 25
c-110 47 -188 71 -230 72 -43 0 -44 0 -173 108 -50 40 -54 42 -118 41 -37 0
-88 -7 -113 -15z m203 -65 c54 -21 83 -42 98 -70 7 -11 -6 -8 -48 12 -83 39
-132 50 -170 39 -40 -11 -94 -44 -140 -84 l-35 -31 18 34 c35 68 116 120 187
121 21 0 61 -9 90 -21z m60 -166 c32 -29 17 -103 -21 -103 -10 0 -30 9 -45 21
-28 22 -35 66 -14 87 17 17 58 15 80 -5z m20 -220 c-11 -21 -35 -49 -54 -62
l-33 -25 38 43 c21 23 43 53 49 67 6 13 13 22 15 20 3 -2 -4 -21 -15 -43z
m-164 -110 c-10 -2 -28 -2 -40 0 -13 2 -5 4 17 4 22 1 32 -1 23 -4z"/>
<path d="M4125 8170 c3 -5 8 -10 11 -10 2 0 4 5 4 10 0 6 -5 10 -11 10 -5 0
-7 -4 -4 -10z"/>
<path d="M3500 8060 c-25 -21 -30 -29 -18 -30 9 0 26 14 38 30 27 38 23 38
-20 0z"/>
<path d="M2153 7780 c-64 -51 -92 -81 -57 -61 22 12 132 110 124 110 -3 0 -33
-22 -67 -49z"/>
<path d="M4470 7770 c8 -5 26 -10 39 -10 32 0 24 6 -19 14 -25 4 -31 3 -20 -4z"/>
<path d="M2958 6853 c6 -2 18 -2 25 0 6 3 1 5 -13 5 -14 0 -19 -2 -12 -5z"/>
<path d="M3511 6386 c3 -3 22 -17 44 -31 l40 -26 -33 31 c-18 16 -37 30 -44
30 -6 0 -9 -2 -7 -4z"/>
<path d="M4972 4835 c0 -16 2 -22 5 -12 2 9 2 23 0 30 -3 6 -5 -1 -5 -18z"/>
<path d="M5543 4725 c4 -9 -2 -28 -13 -43 -20 -26 -20 -33 -9 -180 7 -83 16
-152 20 -152 21 0 29 51 31 203 3 154 2 166 -16 177 -16 10 -18 10 -13 -5z"/>
<path d="M5874 7121 c0 -11 5 -17 13 -14 10 4 11 9 2 19 -15 18 -15 18 -15 -5z"/>
<path d="M2628 6913 c6 -2 18 -2 25 0 6 3 1 5 -13 5 -14 0 -19 -2 -12 -5z"/>
<path d="M6950 6633 c67 -30 76 -34 90 -37 8 -2 28 -8 43 -14 36 -15 55 -16
41 -2 -12 12 -129 53 -179 63 -29 6 -29 6 5 -10z"/>
<path d="M6800 6576 c0 -2 7 -7 16 -10 8 -3 12 -2 9 4 -6 10 -25 14 -25 6z"/>
<path d="M6850 6555 c7 -8 19 -15 27 -15 8 0 12 -4 9 -8 -7 -12 12 -38 21 -29
4 5 1 12 -7 17 -13 8 -12 10 2 10 10 0 32 -13 50 -29 18 -15 44 -32 58 -36 22
-7 193 -80 317 -136 47 -21 73 -24 73 -9 0 12 -26 26 -219 112 -188 84 -348
144 -331 123z"/>
<path d="M7164 6505 c11 -8 24 -15 30 -15 5 0 1 7 -10 15 -10 8 -23 14 -29 14
-5 0 -1 -6 9 -14z"/>
<path d="M6917 6494 c-8 -8 1 -24 12 -24 4 0 8 7 8 15 0 16 -9 20 -20 9z"/>
<path d="M6781 6479 c-31 -12 -15 -32 45 -55 24 -9 44 -20 44 -25 0 -8 40 -24
53 -21 4 1 7 -2 7 -7 0 -5 24 -17 53 -27 28 -9 75 -32 102 -49 28 -18 89 -53
137 -76 71 -35 90 -41 100 -30 16 15 -12 40 -87 78 -27 14 -93 51 -145 83 -52
31 -124 66 -160 78 -36 11 -81 27 -100 35 -33 14 -33 15 -10 20 18 3 20 4 5 5
-11 0 -31 -4 -44 -9z"/>
<path d="M7625 6080 c3 -5 8 -10 11 -10 2 0 4 5 4 10 0 6 -5 10 -11 10 -5 0
-7 -4 -4 -10z"/>
<path d="M7945 6014 c28 -14 58 -33 68 -42 9 -8 17 -11 17 -6 0 4 19 -10 43
-33 48 -46 137 -108 137 -96 0 12 -136 133 -149 133 -6 0 -35 13 -64 29 -28
16 -63 32 -77 35 -14 4 -2 -5 25 -20z"/>
<path d="M8025 5924 c17 -14 50 -45 75 -67 25 -22 61 -54 80 -71 l35 -31 -30
35 c-70 82 -112 122 -150 140 l-40 21 30 -27z"/>
<path d="M7245 5920 c3 -5 8 -10 11 -10 2 0 4 5 4 10 0 6 -5 10 -11 10 -5 0
-7 -4 -4 -10z"/>
<path d="M7273 5906 c-3 -5 -1 -6 4 -3 6 4 13 1 16 -6 3 -6 19 -21 37 -31 22
-13 30 -14 24 -5 -5 8 -9 19 -9 24 0 6 -11 9 -24 7 -18 -2 -21 1 -13 11 8 10
6 13 -9 13 -11 0 -23 -5 -26 -10z"/>
<path d="M7430 5906 c0 -10 12 -28 26 -41 14 -13 23 -28 20 -34 -4 -5 3 -7 16
-3 16 4 19 2 13 -8 -6 -10 -4 -12 8 -7 11 4 14 2 11 -7 -3 -9 6 -18 25 -24 17
-6 31 -14 31 -17 0 -3 -4 -3 -10 0 -5 3 -10 1 -10 -4 0 -6 9 -11 20 -11 26 0
25 4 -4 32 -13 13 -52 49 -85 82 -40 38 -61 52 -61 42z"/>
<path d="M7229 5881 c18 -18 36 -29 39 -26 6 6 -20 28 -53 46 -11 6 -5 -3 14
-20z"/>
<path d="M7303 5835 c16 -15 31 -25 33 -22 3 3 -10 15 -28 27 l-33 23 28 -28z"/>
<path d="M7591 5827 c2 -1 15 -11 29 -22 l25 -20 -19 23 c-11 12 -24 22 -29
22 -6 0 -8 -1 -6 -3z"/>
<path d="M7391 5817 c2 -1 15 -11 29 -22 15 -12 20 -14 12 -4 -6 9 -10 18 -7
20 2 3 -5 6 -17 6 -11 1 -19 1 -17 0z"/>
<path d="M7010 5800 c8 -5 20 -10 25 -10 6 0 3 5 -5 10 -8 5 -19 10 -25 10 -5
0 -3 -5 5 -10z"/>
<path d="M7351 5798 c2 -2 18 -14 34 -28 l30 -25 -24 28 c-14 15 -29 27 -34
27 -6 0 -8 -1 -6 -2z"/>
<path d="M7055 5780 c3 -5 8 -10 11 -10 2 0 4 5 4 10 0 6 -5 10 -11 10 -5 0
-7 -4 -4 -10z"/>
<path d="M6620 5770 c0 -5 -9 -10 -21 -10 -12 0 -19 -5 -16 -12 2 -7 11 -12
21 -10 9 2 16 -1 16 -6 0 -14 48 -33 55 -22 4 6 1 10 -4 10 -6 0 -11 5 -11 10
0 16 17 11 24 -6 4 -11 -1 -22 -14 -31 -11 -8 -20 -23 -20 -34 0 -26 18 -24
23 4 l4 22 2 -22 c0 -13 8 -23 16 -23 16 0 20 15 7 24 -10 6 -3 66 8 66 4 0
10 6 13 13 6 17 -50 22 -69 6 -17 -14 -35 -3 -27 16 3 8 2 15 -1 15 -3 0 -6
-4 -6 -10z"/>
<path d="M7525 5770 c3 -5 8 -10 11 -10 2 0 4 5 4 10 0 6 -5 10 -11 10 -5 0
-7 -4 -4 -10z"/>
<path d="M7090 5756 c0 -2 7 -7 16 -10 8 -3 12 -2 9 4 -6 10 -25 14 -25 6z"/>
<path d="M6732 5737 c-8 -9 -5 -22 10 -45 11 -18 23 -31 26 -28 3 3 0 11 -5
18 -15 20 -24 50 -13 43 6 -3 10 -2 10 4 0 17 -17 22 -28 8z"/>
<path d="M6406 5732 c-3 -6 1 -12 9 -16 8 -3 15 -10 15 -16 0 -6 -5 -8 -12 -4
-7 5 -8 3 -3 -5 5 -9 11 -9 17 -3 7 7 5 17 -5 32 -8 12 -18 17 -21 12z"/>
<path d="M7140 5726 c0 -2 8 -10 18 -17 15 -13 16 -12 3 4 -13 16 -21 21 -21
13z"/>
<path d="M7543 5664 c20 -22 35 -43 32 -45 -3 -3 2 -6 10 -6 8 0 15 1 15 2 0
0 -21 21 -47 45 -46 43 -47 44 -10 4z"/>
<path d="M7215 5650 c10 -11 20 -20 23 -20 3 0 -3 9 -13 20 -10 11 -20 20 -23
20 -3 0 3 -9 13 -20z"/>
<path d="M7129 5653 c0 -4 -2 -18 -3 -30 -3 -28 -4 -27 15 -5 13 15 13 20 2
30 -7 7 -13 9 -14 5z"/>
<path d="M6780 5641 c0 -5 5 -13 10 -16 6 -3 10 -2 10 4 0 5 -4 13 -10 16 -5
3 -10 2 -10 -4z"/>
<path d="M6726 5617 c3 -10 9 -15 12 -12 3 3 0 11 -7 18 -10 9 -11 8 -5 -6z"/>
<path d="M6692 5591 c-22 -13 -11 -66 13 -66 16 0 20 7 20 34 0 36 -11 46 -33
32z"/>
<path d="M6820 5594 c0 -6 11 -21 25 -34 14 -13 25 -20 25 -16 0 4 -11 19 -25
34 -14 15 -25 22 -25 16z"/>
<path d="M6770 5562 c6 -13 18 -26 26 -29 8 -3 14 -14 14 -24 0 -10 5 -19 10
-19 19 0 10 20 -26 58 -24 25 -32 30 -24 14z"/>
<path d="M6460 5535 c0 -5 5 -17 10 -25 5 -8 10 -10 10 -5 0 6 -5 17 -10 25
-5 8 -10 11 -10 5z"/>
<path d="M7340 5522 c0 -5 7 -15 15 -22 8 -7 15 -8 15 -2 0 5 -7 15 -15 22 -8
7 -15 8 -15 2z"/>
<path d="M6900 5509 c0 -22 26 -44 35 -29 3 6 11 7 17 4 6 -4 6 2 -1 15 -12
22 -31 29 -31 10 0 -5 5 -7 10 -4 11 7 14 -8 3 -19 -4 -3 -13 4 -20 16 -9 17
-12 19 -13 7z"/>
<path d="M7290 5497 c0 -2 15 -16 33 -33 l32 -29 -29 33 c-28 30 -36 37 -36
29z"/>
<path d="M6836 5474 c-3 -9 -2 -12 5 -8 6 3 23 -4 37 -17 24 -22 24 -21 -2 9
-35 37 -32 36 -40 16z"/>
<path d="M7385 5470 c3 -5 8 -10 11 -10 2 0 4 5 4 10 0 6 -5 10 -11 10 -5 0
-7 -4 -4 -10z"/>
<path d="M7421 5433 c7 -12 15 -20 18 -17 3 2 -3 12 -13 22 -17 16 -18 16 -5
-5z"/>
<path d="M8440 5431 c0 -6 4 -13 10 -16 6 -3 7 1 4 9 -7 18 -14 21 -14 7z"/>
<path d="M6994 5388 c21 -27 41 -48 44 -48 3 0 -3 9 -12 19 -11 12 -15 25 -10
33 4 7 3 10 -1 5 -5 -4 -20 3 -34 15 -14 13 -9 3 13 -24z"/>
<path d="M6910 5415 c0 -7 51 -55 58 -55 3 0 -7 14 -23 30 -29 30 -35 34 -35
25z"/>
<path d="M7456 5397 c3 -10 9 -15 12 -12 3 3 0 11 -7 18 -10 9 -11 8 -5 -6z"/>
<path d="M6990 5341 c0 -6 4 -13 10 -16 6 -3 7 1 4 9 -7 18 -14 21 -14 7z"/>
<path d="M7465 5309 c-4 -6 -5 -12 -2 -15 2 -3 7 2 10 11 7 17 1 20 -8 4z"/>
<path d="M7016 5288 c3 -5 10 -6 15 -3 13 9 11 12 -6 12 -8 0 -12 -4 -9 -9z"/>
<path d="M7500 5291 c0 -6 4 -12 8 -15 5 -3 9 1 9 9 0 8 -4 15 -9 15 -4 0 -8
-4 -8 -9z"/>
<path d="M7930 5276 c0 -2 8 -10 18 -17 15 -13 16 -12 3 4 -13 16 -21 21 -21
13z"/>
<path d="M7555 5189 c-4 -6 -5 -12 -2 -15 2 -3 7 2 10 11 7 17 1 20 -8 4z"/>
<path d="M7510 5157 c0 -10 51 -87 57 -87 5 0 -11 27 -44 75 -7 11 -13 16 -13
12z"/>
<path d="M7526 5049 c2 -4 13 -7 24 -6 23 2 17 10 -10 12 -10 1 -17 -2 -14 -6z"/>
<path d="M7665 5040 c-3 -5 1 -10 10 -10 9 0 13 5 10 10 -3 6 -8 10 -10 10 -2
0 -7 -4 -10 -10z"/>
<path d="M7630 5006 c14 -18 13 -19 -4 -12 -19 7 -19 6 -1 -14 19 -21 30 -27
20 -10 -3 6 -2 10 4 10 5 0 11 -6 14 -12 2 -7 7 -10 11 -7 3 3 -9 19 -26 35
-18 16 -26 20 -18 10z"/>
<path d="M7700 4980 c0 -5 5 -10 10 -10 6 0 10 5 10 10 0 6 -4 10 -10 10 -5 0
-10 -4 -10 -10z"/>
<path d="M7385 4890 c-3 -5 3 -10 14 -10 12 0 21 5 21 10 0 6 -6 10 -14 10 -8
0 -18 -4 -21 -10z"/>
<path d="M7997 4829 c12 -12 25 -20 28 -17 3 3 -7 13 -22 23 l-28 17 22 -23z"/>
<path d="M7255 4830 c3 -5 10 -10 16 -10 5 0 9 5 9 10 0 6 -7 10 -16 10 -8 0
-12 -4 -9 -10z"/>
<path d="M8760 4815 c0 -5 5 -17 10 -25 5 -8 10 -10 10 -5 0 6 -5 17 -10 25
-5 8 -10 11 -10 5z"/>
<path d="M8040 4780 c6 -11 13 -20 16 -20 2 0 0 9 -6 20 -6 11 -13 20 -16 20
-2 0 0 -9 6 -20z"/>
<path d="M8180 4781 c0 -19 17 -38 25 -29 7 7 -7 48 -16 48 -5 0 -9 -9 -9 -19z"/>
<path d="M7970 4770 c0 -5 5 -10 11 -10 5 0 7 5 4 10 -3 6 -8 10 -11 10 -2 0
-4 -4 -4 -10z"/>
<path d="M8010 4689 c0 -17 20 -49 31 -49 6 0 3 7 -6 16 -9 9 -14 23 -11 30 3
8 1 14 -4 14 -6 0 -10 -5 -10 -11z"/>
<path d="M7922 4660 c0 -14 2 -19 5 -12 2 6 2 18 0 25 -3 6 -5 1 -5 -13z"/>
<path d="M8080 4613 c0 -7 5 -15 11 -18 6 -4 8 -14 5 -22 -3 -8 -2 -11 3 -8 6
3 14 -3 20 -12 6 -10 11 -14 11 -10 0 4 -11 25 -25 45 -14 20 -25 31 -25 25z"/>
<path d="M8150 4594 c0 -6 7 -19 16 -30 14 -18 14 -18 3 6 -14 31 -19 36 -19
24z"/>
<path d="M7511 4574 c0 -11 3 -14 6 -6 3 7 2 16 -1 19 -3 4 -6 -2 -5 -13z"/>
<path d="M8851 4548 c-1 -15 4 -30 9 -33 12 -7 12 12 0 40 -8 18 -9 17 -9 -7z"/>
<path d="M8745 4510 c4 -25 13 -63 20 -85 7 -22 23 -75 36 -117 13 -43 27 -78
32 -78 5 0 6 -9 2 -20 -5 -15 -3 -18 9 -14 17 7 22 40 7 46 -8 3 -19 36 -72
223 -24 85 -44 111 -34 45z"/>
<path d="M8870 4493 c0 -7 6 -32 14 -55 7 -24 22 -73 31 -111 10 -37 20 -65
22 -63 5 5 -46 205 -58 226 -5 9 -9 10 -9 3z"/>
<path d="M8881 4324 c0 -11 3 -14 6 -6 3 7 2 16 -1 19 -3 4 -6 -2 -5 -13z"/>
<path d="M8942 4230 c0 -14 2 -19 5 -12 2 6 2 18 0 25 -3 6 -5 1 -5 -13z"/>
<path d="M8810 4170 c0 -5 5 -10 11 -10 5 0 7 5 4 10 -3 6 -8 10 -11 10 -2 0
-4 -4 -4 -10z"/>
<path d="M8966 4131 c3 -30 1 -47 -8 -53 -11 -6 -11 -8 0 -8 19 0 24 22 12 65
l-10 40 6 -44z"/>
<path d="M8572 4060 c0 -14 2 -19 5 -12 2 6 2 18 0 25 -3 6 -5 1 -5 -13z"/>
<path d="M6410 6591 c0 -10 7 -22 16 -25 12 -4 14 -1 9 14 -7 23 13 28 21 5 4
-8 10 -12 15 -9 5 3 9 0 9 -7 0 -7 3 -9 7 -5 10 10 -37 45 -59 46 -11 0 -18
-7 -18 -19z"/>
<path d="M2822 6264 c10 -10 20 -16 22 -13 3 3 -5 11 -17 18 -21 13 -21 12 -5
-5z"/>
<path d="M2943 6153 c4 -6 26 -26 50 -44 28 -23 36 -26 22 -10 -23 26 -82 71
-72 54z"/>
<path d="M2875 5865 c17 -13 35 -24 40 -24 6 0 -3 11 -20 24 -16 14 -34 25
-40 25 -5 0 4 -11 20 -25z"/>
<path d="M3455 5633 c6 -5 33 -26 60 -47 l50 -38 -40 37 c-22 20 -49 41 -60
47 -11 6 -15 6 -10 1z"/>
<path d="M4590 4665 c0 -9 5 -15 11 -13 6 2 11 8 11 13 0 5 -5 11 -11 13 -6 2
-11 -4 -11 -13z"/>
<path d="M4593 4600 c0 -25 2 -35 4 -22 2 12 2 32 0 45 -2 12 -4 2 -4 -23z"/>
<path d="M5120 3060 c0 -13 7 -20 20 -20 13 0 20 7 20 20 0 13 -7 20 -20 20
-13 0 -20 -7 -20 -20z"/>
<path d="M5083 2985 c-3 -9 -3 -18 -1 -21 3 -3 8 4 11 16 6 23 -1 27 -10 5z"/>
<path d="M4537 3099 c4 -13 8 -18 11 -10 2 7 -1 18 -6 23 -8 8 -9 4 -5 -13z"/>
<path d="M3040 1395 c-27 -28 -30 -35 -16 -35 10 0 20 9 23 20 3 11 9 18 13
15 4 -3 13 2 19 9 26 31 -8 23 -39 -9z"/>
</g>
</svg>
